<mxfile host="app.diagrams.net" agent="Mozilla/5.0 (Macintosh; Intel Mac OS X 10_15_7) AppleWebKit/537.36 (KHTML, like Gecko) Chrome/131.0.0.0 Safari/537.36 Edg/131.0.0.0" version="27.1.4">
  <diagram id="prtHgNgQTEPvFCAcTncT" name="Page-1">
    <mxGraphModel dx="553" dy="497" grid="1" gridSize="10" guides="1" tooltips="1" connect="1" arrows="1" fold="1" page="1" pageScale="1" pageWidth="827" pageHeight="1169" math="0" shadow="0">
      <root>
        <mxCell id="0" />
        <mxCell id="1" parent="0" />
        <mxCell id="kQUY-Gi3uTlWQu10qIIy-1" value="API对接资金白名单" style="swimlane;childLayout=stackLayout;resizeParent=1;resizeParentMax=0;startSize=20;html=1;labelBackgroundColor=none;fillColor=#B2C9AB;strokeColor=#788AA3;fontColor=#46495D;" vertex="1" parent="1">
          <mxGeometry x="120" y="250" width="600" height="600" as="geometry" />
        </mxCell>
        <mxCell id="kQUY-Gi3uTlWQu10qIIy-2" value="apiopfcore" style="swimlane;startSize=20;html=1;labelBackgroundColor=none;fillColor=#B2C9AB;strokeColor=#788AA3;fontColor=#46495D;" vertex="1" parent="kQUY-Gi3uTlWQu10qIIy-1">
          <mxGeometry y="20" width="250" height="580" as="geometry" />
        </mxCell>
        <mxCell id="kQUY-Gi3uTlWQu10qIIy-7" value="" style="edgeStyle=orthogonalEdgeStyle;rounded=0;orthogonalLoop=1;jettySize=auto;html=1;labelBackgroundColor=none;strokeColor=#788AA3;fontColor=default;" edge="1" parent="kQUY-Gi3uTlWQu10qIIy-2" source="kQUY-Gi3uTlWQu10qIIy-5" target="kQUY-Gi3uTlWQu10qIIy-6">
          <mxGeometry relative="1" as="geometry" />
        </mxCell>
        <mxCell id="kQUY-Gi3uTlWQu10qIIy-5" value="创单接口&lt;div&gt;out-order/create&lt;/div&gt;" style="rounded=0;whiteSpace=wrap;html=1;labelBackgroundColor=none;fillColor=#B2C9AB;strokeColor=#788AA3;fontColor=#46495D;" vertex="1" parent="kQUY-Gi3uTlWQu10qIIy-2">
          <mxGeometry x="60" y="50" width="110" height="40" as="geometry" />
        </mxCell>
        <mxCell id="kQUY-Gi3uTlWQu10qIIy-12" style="edgeStyle=orthogonalEdgeStyle;rounded=0;orthogonalLoop=1;jettySize=auto;html=1;strokeColor=#788AA3;fontColor=#46495D;fillColor=#B2C9AB;" edge="1" parent="kQUY-Gi3uTlWQu10qIIy-2" source="kQUY-Gi3uTlWQu10qIIy-6" target="kQUY-Gi3uTlWQu10qIIy-11">
          <mxGeometry relative="1" as="geometry" />
        </mxCell>
        <mxCell id="kQUY-Gi3uTlWQu10qIIy-6" value="请求名单平台获取资金白名单配置数据" style="whiteSpace=wrap;html=1;rounded=0;labelBackgroundColor=none;fillColor=#B2C9AB;strokeColor=#788AA3;fontColor=#46495D;" vertex="1" parent="kQUY-Gi3uTlWQu10qIIy-2">
          <mxGeometry x="55" y="140" width="120" height="40" as="geometry" />
        </mxCell>
        <mxCell id="kQUY-Gi3uTlWQu10qIIy-14" value="是" style="edgeStyle=orthogonalEdgeStyle;rounded=0;orthogonalLoop=1;jettySize=auto;html=1;strokeColor=#788AA3;fontColor=#46495D;fillColor=#B2C9AB;" edge="1" parent="kQUY-Gi3uTlWQu10qIIy-2" source="kQUY-Gi3uTlWQu10qIIy-11" target="kQUY-Gi3uTlWQu10qIIy-13">
          <mxGeometry relative="1" as="geometry" />
        </mxCell>
        <mxCell id="kQUY-Gi3uTlWQu10qIIy-20" style="edgeStyle=orthogonalEdgeStyle;rounded=0;orthogonalLoop=1;jettySize=auto;html=1;entryX=0;entryY=0.5;entryDx=0;entryDy=0;strokeColor=#788AA3;fontColor=#46495D;fillColor=#B2C9AB;" edge="1" parent="kQUY-Gi3uTlWQu10qIIy-2" source="kQUY-Gi3uTlWQu10qIIy-11" target="kQUY-Gi3uTlWQu10qIIy-16">
          <mxGeometry relative="1" as="geometry">
            <Array as="points">
              <mxPoint x="20" y="270" />
              <mxPoint x="20" y="500" />
            </Array>
          </mxGeometry>
        </mxCell>
        <mxCell id="kQUY-Gi3uTlWQu10qIIy-21" value="否" style="edgeLabel;html=1;align=center;verticalAlign=middle;resizable=0;points=[];strokeColor=#788AA3;fontColor=#46495D;fillColor=#B2C9AB;" vertex="1" connectable="0" parent="kQUY-Gi3uTlWQu10qIIy-20">
          <mxGeometry x="-0.2444" y="1" relative="1" as="geometry">
            <mxPoint as="offset" />
          </mxGeometry>
        </mxCell>
        <mxCell id="kQUY-Gi3uTlWQu10qIIy-11" value="是否命中资金白名单" style="strokeWidth=2;html=1;shape=mxgraph.flowchart.decision;whiteSpace=wrap;strokeColor=#788AA3;fontColor=#46495D;fillColor=#B2C9AB;" vertex="1" parent="kQUY-Gi3uTlWQu10qIIy-2">
          <mxGeometry x="40" y="230" width="150" height="80" as="geometry" />
        </mxCell>
        <mxCell id="kQUY-Gi3uTlWQu10qIIy-15" style="edgeStyle=orthogonalEdgeStyle;rounded=0;orthogonalLoop=1;jettySize=auto;html=1;strokeColor=#788AA3;fontColor=#46495D;fillColor=#B2C9AB;" edge="1" parent="kQUY-Gi3uTlWQu10qIIy-2" source="kQUY-Gi3uTlWQu10qIIy-13">
          <mxGeometry relative="1" as="geometry">
            <mxPoint x="115" y="470" as="targetPoint" />
          </mxGeometry>
        </mxCell>
        <mxCell id="kQUY-Gi3uTlWQu10qIIy-13" value="创单时增加白名单类型、指定资方编码字段" style="whiteSpace=wrap;html=1;fillColor=#B2C9AB;strokeColor=#788AA3;fontColor=#46495D;strokeWidth=2;" vertex="1" parent="kQUY-Gi3uTlWQu10qIIy-2">
          <mxGeometry x="55" y="360" width="120" height="60" as="geometry" />
        </mxCell>
        <mxCell id="kQUY-Gi3uTlWQu10qIIy-16" value="请求创单" style="whiteSpace=wrap;html=1;fillColor=#B2C9AB;strokeColor=#788AA3;fontColor=#46495D;strokeWidth=2;" vertex="1" parent="kQUY-Gi3uTlWQu10qIIy-2">
          <mxGeometry x="55" y="470" width="120" height="60" as="geometry" />
        </mxCell>
        <mxCell id="kQUY-Gi3uTlWQu10qIIy-3" value="名单平台" style="swimlane;startSize=20;html=1;labelBackgroundColor=none;fillColor=#B2C9AB;strokeColor=#788AA3;fontColor=#46495D;" vertex="1" parent="kQUY-Gi3uTlWQu10qIIy-1">
          <mxGeometry x="250" y="20" width="180" height="580" as="geometry" />
        </mxCell>
        <mxCell id="kQUY-Gi3uTlWQu10qIIy-8" value="白名单配置数据" style="whiteSpace=wrap;html=1;fillColor=#B2C9AB;strokeColor=#788AA3;fontColor=#46495D;rounded=0;labelBackgroundColor=none;" vertex="1" parent="kQUY-Gi3uTlWQu10qIIy-3">
          <mxGeometry x="40" y="130" width="120" height="60" as="geometry" />
        </mxCell>
        <mxCell id="kQUY-Gi3uTlWQu10qIIy-4" value="借款引擎" style="swimlane;startSize=20;html=1;labelBackgroundColor=none;fillColor=#B2C9AB;strokeColor=#788AA3;fontColor=#46495D;" vertex="1" parent="kQUY-Gi3uTlWQu10qIIy-1">
          <mxGeometry x="430" y="20" width="170" height="580" as="geometry" />
        </mxCell>
        <mxCell id="kQUY-Gi3uTlWQu10qIIy-17" value="创单接口" style="whiteSpace=wrap;html=1;fillColor=#B2C9AB;strokeColor=#788AA3;fontColor=#46495D;strokeWidth=2;" vertex="1" parent="kQUY-Gi3uTlWQu10qIIy-4">
          <mxGeometry x="30" y="470" width="120" height="60" as="geometry" />
        </mxCell>
        <mxCell id="kQUY-Gi3uTlWQu10qIIy-9" value="" style="edgeStyle=orthogonalEdgeStyle;rounded=0;orthogonalLoop=1;jettySize=auto;html=1;strokeColor=#788AA3;fontColor=#46495D;fillColor=#B2C9AB;" edge="1" parent="kQUY-Gi3uTlWQu10qIIy-1" source="kQUY-Gi3uTlWQu10qIIy-6" target="kQUY-Gi3uTlWQu10qIIy-8">
          <mxGeometry relative="1" as="geometry" />
        </mxCell>
        <mxCell id="kQUY-Gi3uTlWQu10qIIy-10" value="&lt;article data-identifier-application__slash__x-doc-key=&quot;oJGq75krWLxpPlAK&quot; data-identifier-application__slash__x-cangjie-fragment=&quot;JTdCJTIya2xhc3MlMjIlM0ElMjJkb2N1bWVudCUyMiUyQyUyMmRhdGElMjIlM0ElN0IlN0QlMkMlMjJub2RlcyUyMiUzQSU1QiU3QiUyMmtsYXNzJTIyJTNBJTIyYmxvY2slMjIlMkMlMjJ0eXBlJTIyJTNBJTIycGFyYWdyYXBoJTIyJTJDJTIyZGF0YSUyMiUzQSU3QiUyMnV1aWQlMjIlM0ElMjJtMWMycWMxNG01MG01YTA1OWxsJTIyJTdEJTJDJTIybm9kZXMlMjIlM0ElNUIlN0IlMjJrbGFzcyUyMiUzQSUyMnRleHQlMjIlMkMlMjJsZWF2ZXMlMjIlM0ElNUIlN0IlMjJrbGFzcyUyMiUzQSUyMmxlYWYlMjIlMkMlMjJ0ZXh0JTIyJTNBJTIydXNlci1saXN0JTJGbWF0Y2glMjIlMkMlMjJtYXJrcyUyMiUzQSU1QiU3QiUyMmtsYXNzJTIyJTNBJTIybWFyayUyMiUyQyUyMnR5cGUlMjIlM0ElMjJzeiUyMiUyQyUyMmRhdGElMjIlM0ElN0IlMjJ2YWx1ZSUyMiUzQTEwLjUlMkMlMjJzelVuaXQlMjIlM0ElMjJwdCUyMiU3RCU3RCUyQyU3QiUyMmtsYXNzJTIyJTNBJTIybWFyayUyMiUyQyUyMnR5cGUlMjIlM0ElMjJjb2xvciUyMiUyQyUyMmRhdGElMjIlM0ElN0IlMjJ2YWx1ZSUyMiUzQSUyMnJnYigyMSUyQyUyMDM4JTJDJTIwNzApJTIyJTdEJTdEJTVEJTdEJTVEJTdEJTVEJTJDJTIyY29udGVudFR5cGUlMjIlM0ElMjJjYW5namllLXRleHRibG9jayUyMiU3RCU1RCU3RA==&quot; data-clipboard-cangjie=&quot;[&amp;quot;root&amp;quot;,{},[&amp;quot;p&amp;quot;,{&amp;quot;uuid&amp;quot;:&amp;quot;m1c2qc14m50m5a059ll&amp;quot;},[&amp;quot;span&amp;quot;,{&amp;quot;data-type&amp;quot;:&amp;quot;text&amp;quot;},[&amp;quot;span&amp;quot;,{&amp;quot;sz&amp;quot;:10.5,&amp;quot;szUnit&amp;quot;:&amp;quot;pt&amp;quot;,&amp;quot;color&amp;quot;:&amp;quot;rgb(21, 38, 70)&amp;quot;,&amp;quot;data-type&amp;quot;:&amp;quot;leaf&amp;quot;},&amp;quot;user-list/match&amp;quot;]]]]&quot; class=&quot;4ever-article&quot;&gt;&lt;p style=&quot;text-align: left; margin-left: 0px; margin-top: 0px; margin-bottom: 0px;&quot;&gt;&lt;span style=&quot;font-size:10.5pt;color:rgb(21, 38, 70)&quot; data-type=&quot;text&quot;&gt;user-list/match&lt;/span&gt;&lt;/p&gt;&lt;/article&gt;" style="edgeLabel;html=1;align=center;verticalAlign=middle;resizable=0;points=[];strokeColor=#788AA3;fontColor=#46495D;fillColor=#B2C9AB;" vertex="1" connectable="0" parent="kQUY-Gi3uTlWQu10qIIy-9">
          <mxGeometry x="-0.1401" y="1" relative="1" as="geometry">
            <mxPoint as="offset" />
          </mxGeometry>
        </mxCell>
        <mxCell id="kQUY-Gi3uTlWQu10qIIy-18" style="edgeStyle=orthogonalEdgeStyle;rounded=0;orthogonalLoop=1;jettySize=auto;html=1;entryX=0;entryY=0.5;entryDx=0;entryDy=0;strokeColor=#788AA3;fontColor=#46495D;fillColor=#B2C9AB;" edge="1" parent="kQUY-Gi3uTlWQu10qIIy-1" source="kQUY-Gi3uTlWQu10qIIy-16" target="kQUY-Gi3uTlWQu10qIIy-17">
          <mxGeometry relative="1" as="geometry" />
        </mxCell>
        <mxCell id="kQUY-Gi3uTlWQu10qIIy-19" value="&lt;div style=&quot;background-color:#fff2e2;color:#080808&quot;&gt;&lt;pre style=&quot;font-family:&#39;JetBrains Mono&#39;,monospace;font-size:11.3pt;&quot;&gt;&lt;span style=&quot;color:#067d17;&quot;&gt;/v1/order/create&lt;/span&gt;&lt;/pre&gt;&lt;/div&gt;" style="edgeLabel;html=1;align=center;verticalAlign=middle;resizable=0;points=[];strokeColor=#788AA3;fontColor=#46495D;fillColor=#B2C9AB;" vertex="1" connectable="0" parent="kQUY-Gi3uTlWQu10qIIy-18">
          <mxGeometry x="0.1993" y="3" relative="1" as="geometry">
            <mxPoint as="offset" />
          </mxGeometry>
        </mxCell>
      </root>
    </mxGraphModel>
  </diagram>
</mxfile>
